<?xml version="1.0" standalone="no"?>
<!DOCTYPE svg PUBLIC "-//W3C//DTD SVG 20010904//EN"
 "http://www.w3.org/TR/2001/REC-SVG-20010904/DTD/svg10.dtd">
<svg version="1.0" xmlns="http://www.w3.org/2000/svg"
 width="163" height="1163" viewBox="0 0 163 163" fill="none" xmlns="http://www.w3.org/2000/svg" xmlns:xlink="http://www.w3.org/1999/xlink"
 preserveAspectRatio="xMidYMid meet">

<g transform="translate(0.000000, 163) scale(0.100000,-0.100000)"
fill="none" stroke="none">
<path d="M5695 11794 c-27 -2 -108 -9 -180 -14 -2563 -210 -4700 -2117 -5204
-4645 -114 -573 -141 -1217 -75 -1790 140 -1223 653 -2357 1470 -3250 851
-930 1944 -1549 3169 -1794 386 -77 684 -105 1125 -105 335 0 480 8 730 40
1712 218 3215 1166 4160 2624 441 680 740 1482 859 2300 44 300 55 471 55 835
0 364 -11 528 -55 840 -261 1835 -1419 3459 -3080 4319 -659 341 -1348 544
-2113 622 -142 14 -742 27 -861 18z m470 -268 c0 0 -4 -203 -9 -449 -4 -246
-5 -451 -1 -455 3 -4 92 -8 196 -10 l189 -3 0 -126 0 -125 -377 7 c-208 4
-379 8 -379 9 -2 1 24 1161 25 1161 4 1 356 -8 356 -9z m-847 -73 c26 -123 34
-174 29 -180 -4 -3 -82 -21 -174 -39 -92 -19 -177 -36 -189 -39 l-21 -5 20
-100 c16 -79 23 -100 37 -100 9 0 92 15 184 34 116 23 169 30 171 22 13 -40
42 -212 37 -217 -4 -3 -81 -20 -172 -38 -91 -18 -170 -34 -176 -36 -9 -3 -9
-20 1 -67 7 -35 18 -88 24 -119 l12 -56 195 39 c108 22 198 38 200 35 7 -7 47
-217 42 -222 -5 -5 -742 -155 -744 -152 -9 21 -224 1130 -220 1135 6 5 688
148 723 151 6 1 16 -20 21 -46z m1992 -54 c167 -27 305 -147 346 -301 24 -93
27 -89 -98 -131 -61 -20 -114 -35 -116 -33 -2 3 -10 34 -19 70 -17 75 -42 113
-89 132 -44 19 -79 4 -101 -40 -15 -32 -15 -36 1 -61 9 -14 45 -47 79 -73 108
-82 192 -169 223 -230 25 -50 28 -67 28 -147 0 -115 -26 -183 -95 -260 -75
-82 -156 -118 -274 -123 -139 -6 -259 35 -351 120 -55 51 -79 89 -108 176
l-24 69 115 47 c64 26 119 44 123 39 4 -4 13 -26 20 -48 33 -103 73 -145 140
-145 42 0 90 47 90 88 0 41 -33 78 -150 168 -153 117 -196 194 -188 339 10
200 147 329 373 354 6 0 39 -4 75 -10z m-2993 -711 c133 -282 243 -519 245
-525 2 -8 -61 -43 -156 -88 -87 -41 -160 -74 -161 -73 -2 2 -35 73 -75 158
-40 85 -85 181 -101 212 l-29 57 -102 -48 c-65 -31 -102 -53 -100 -62 2 -7 47
-105 99 -216 53 -112 94 -205 92 -206 -17 -12 -320 -150 -322 -146 -2 2 -114
239 -249 525 l-245 522 156 73 c86 40 159 74 162 75 3 2 46 -81 94 -184 49
-103 92 -191 96 -195 7 -9 209 81 209 93 0 5 -38 90 -85 190 -47 101 -87 187
-88 193 -2 8 294 156 314 157 3 0 114 -231 246 -512z m4206 236 c182 -91 334
-168 337 -171 2 -2 -19 -51 -48 -108 l-53 -104 -180 89 -179 90 -45 -90 c-25
-49 -45 -92 -45 -95 0 -3 73 -41 163 -86 89 -45 163 -82 165 -84 2 -1 -21 -50
-49 -108 l-53 -105 -168 84 -168 84 -54 -108 -54 -108 156 -78 c87 -43 167
-84 179 -92 l23 -14 -52 -104 -52 -104 -338 169 c-186 93 -338 172 -338 177
-1 7 513 1031 518 1032 1 0 152 -75 335 -166z m-5640 -580 c40 -9 76 -20 81
-24 7 -7 -7 -88 -35 -191 l-9 -37 -63 14 c-75 16 -185 18 -224 3 -37 -14 -100
-75 -122 -119 -28 -55 -33 -100 -16 -165 21 -80 66 -154 145 -235 192 -197
420 -170 487 59 14 51 14 61 0 126 -9 38 -19 79 -22 91 -6 19 2 23 102 49 59
15 113 30 120 32 16 6 53 -160 53 -239 0 -334 -341 -605 -685 -545 -225 40
-405 197 -479 417 -74 222 -21 445 144 610 85 86 147 122 252 150 91 23 177
25 271 4z m6855 -56 c-3 -7 -106 -311 -229 -675 -123 -365 -228 -663 -232
-663 -7 0 -191 156 -261 221 -18 16 -17 20 23 140 22 68 41 129 41 136 0 6
-37 43 -81 82 l-81 70 -123 -64 -122 -65 -101 87 c-56 48 -98 91 -94 94 11 11
1246 649 1256 649 4 0 6 -6 4 -12z m-3434 -169 c562 -42 1066 -182 1566 -435
523 -265 991 -643 1354 -1094 114 -142 298 -412 385 -566 269 -478 441 -1015
507 -1592 22 -183 25 -639 6 -822 -118 -1157 -674 -2169 -1580 -2877 -1237
-969 -2941 -1144 -4357 -450 -1004 493 -1764 1369 -2114 2437 -82 252 -144
539 -178 830 -22 183 -24 667 -5 850 56 527 192 992 423 1450 214 424 430 722
773 1066 348 347 648 564 1077 778 458 229 957 373 1439 415 69 6 141 13 160
15 86 8 417 5 544 -5z m-4907 -2324 c41 -14 98 -40 126 -59 115 -73 219 -223
246 -354 62 -297 -135 -594 -434 -657 -88 -18 -132 -18 -220 0 -306 64 -501
369 -430 673 44 186 193 342 385 403 87 28 233 25 327 -6z m9528 10 c32 -9 86
-30 119 -48 74 -38 191 -153 229 -224 36 -68 67 -191 67 -267 0 -219 -153
-440 -359 -517 -97 -36 -196 -45 -290 -27 -264 52 -444 254 -458 513 -7 113 8
184 57 283 94 186 279 301 485 302 50 0 117 -7 150 -15z m-9522 -2496 c38 -5
82 -16 98 -25 39 -20 69 -70 69 -116 l0 -36 49 1 c83 3 131 -45 157 -158 9
-38 26 -106 37 -150 40 -151 22 -231 -58 -266 l-43 -19 15 -39 c33 -84 -17
-162 -147 -230 -36 -19 -78 -44 -95 -57 -90 -66 -178 -82 -241 -44 -18 12 -36
30 -39 40 -7 23 -21 26 -32 7 -16 -26 -58 -47 -96 -47 -57 0 -99 22 -175 92
-38 35 -95 85 -126 111 -31 27 -63 62 -72 79 -22 42 -14 122 14 151 l21 21
-37 21 c-83 46 -90 127 -23 273 21 48 44 103 50 123 37 118 129 182 214 150
23 -9 26 -7 36 33 11 44 39 78 81 95 28 12 229 6 343 -10z m9632 -4 c30 -23
51 -57 60 -98 5 -24 8 -26 27 -16 12 6 41 9 67 6 39 -4 52 -12 88 -51 23 -26
47 -63 53 -84 7 -20 32 -81 57 -135 53 -119 62 -177 35 -227 -10 -19 -35 -44
-54 -55 l-34 -20 23 -34 c46 -68 23 -144 -65 -219 -30 -26 -86 -76 -126 -111
-78 -70 -117 -91 -171 -91 -40 0 -89 22 -103 46 -7 13 -15 8 -49 -25 -37 -37
-45 -41 -92 -41 -54 0 -93 16 -185 75 -28 17 -77 47 -109 66 -109 63 -145 130
-114 210 l15 39 -44 19 c-35 16 -49 30 -64 63 -25 56 -25 73 4 193 13 55 29
126 36 157 21 105 80 164 161 161 l49 -1 0 36 c0 52 33 100 83 122 47 21 216
39 344 37 64 -2 87 -6 108 -22z m-8382 -2642 c73 -69 141 -134 151 -144 19
-18 19 -19 -32 -73 l-52 -54 -76 70 -75 71 -36 -35 -35 -35 71 -63 70 -62 -46
-54 c-26 -30 -50 -54 -55 -54 -4 0 -37 28 -73 62 l-66 61 -95 -94 -94 -94 -76
77 -77 76 224 235 c123 129 228 236 232 236 4 1 67 -56 140 -126z m6923 101
c46 -22 92 -76 99 -118 6 -30 11 -34 46 -39 126 -17 200 -162 144 -282 -11
-24 -69 -89 -142 -160 l-124 -120 -162 165 c-89 91 -193 198 -232 237 l-69 73
113 107 c62 60 131 118 153 131 49 27 125 29 174 6z m-408 -547 c78 -106 146
-206 152 -221 16 -44 12 -123 -10 -166 -58 -113 -215 -192 -317 -160 -21 7
-52 23 -69 36 -24 18 -267 335 -307 400 -5 8 20 32 75 73 46 33 86 61 90 61 3
0 61 -75 129 -167 147 -203 156 -213 186 -213 29 0 73 42 73 68 0 11 -62 105
-138 208 l-139 189 61 46 c34 26 64 45 67 43 4 -2 70 -91 147 -197z m-6054 63
c69 -26 134 -83 171 -151 27 -49 30 -62 30 -149 0 -82 -4 -103 -27 -152 -33
-70 -106 -145 -173 -178 -71 -35 -180 -39 -256 -11 -75 28 -141 88 -176 159
-24 49 -28 69 -28 142 0 75 4 92 32 150 85 175 260 252 427 190z m5352 -530
c63 -112 118 -208 123 -213 6 -6 48 12 103 41 l94 51 34 -62 c19 -34 35 -66
35 -70 0 -12 -369 -216 -377 -208 -20 20 -317 566 -311 572 16 16 168 99 177
96 4 -1 59 -95 122 -207z m-4671 121 c65 -29 138 -101 167 -165 31 -71 31
-188 -1 -268 -30 -76 -106 -159 -179 -195 -48 -24 -69 -28 -137 -28 -97 1
-152 23 -224 90 -70 65 -96 128 -96 235 0 75 4 93 32 152 46 97 123 166 223
199 44 15 161 4 215 -20z m4248 -176 c83 -41 84 -43 39 -114 l-38 -60 -39 24
c-88 55 -155 51 -203 -10 -29 -36 -29 -115 -2 -187 46 -120 135 -168 217 -118
41 25 63 68 63 125 l0 45 43 0 c23 0 59 -3 81 -7 l38 -6 -6 -51 c-15 -129 -67
-205 -174 -258 -59 -29 -76 -33 -152 -33 -71 0 -94 4 -141 26 -235 110 -270
445 -63 592 105 75 226 86 337 32z m-3657 -91 c104 -36 192 -69 196 -72 3 -4
-5 -37 -19 -74 l-25 -67 -49 19 -50 20 -10 -28 c-6 -15 -44 -121 -84 -235 -40
-115 -76 -211 -78 -214 -10 -10 -197 58 -197 72 0 7 36 115 80 240 44 125 78
231 75 235 -2 4 -25 13 -50 20 -26 7 -44 18 -42 24 3 6 13 37 23 69 10 31 23
57 29 57 6 0 96 -30 201 -66z m534 -154 c109 -23 155 -37 185 -58 92 -63 113
-204 43 -279 -20 -21 -20 -24 -4 -63 30 -75 14 -154 -42 -213 -67 -71 -136
-77 -351 -29 -80 18 -146 34 -147 35 0 1 30 146 67 322 38 176 68 321 69 323
0 2 8 1 18 -2 9 -3 82 -19 162 -36z m810 -393 c67 -208 119 -381 116 -384 -3
-3 -54 -2 -113 3 l-107 9 -19 65 c-10 36 -22 68 -25 71 -4 4 -31 10 -60 14
l-53 7 -32 -72 -32 -72 -44 6 c-24 3 -61 6 -82 6 -22 0 -39 4 -39 9 0 20 354
731 361 724 4 -5 62 -178 129 -386z m1015 321 c3 -13 21 -124 40 -247 19 -123
37 -226 39 -228 2 -2 45 3 97 12 52 8 99 15 106 15 12 0 39 -137 29 -148 -7
-6 -418 -73 -423 -68 -5 4 -104 648 -101 651 2 1 46 9 98 17 52 9 98 16 102
17 4 0 10 -9 13 -21z m-541 -205 c4 -93 9 -205 12 -250 l6 -83 108 0 108 0 4
-74 3 -75 -80 -5 c-44 -3 -141 -8 -216 -11 l-137 -6 -6 88 c-3 48 -8 158 -11
243 -3 85 -8 194 -11 242 l-6 87 38 4 c22 2 71 4 110 5 l72 2 6 -167z"/>
<path d="M6525 9208 c-11 -7 -25 -13 -31 -14 -47 -8 -204 -145 -235 -206 -20
-39 -25 -103 -10 -126 6 -10 30 -13 85 -11 42 1 79 0 82 -3 3 -4 -75 -8 -173
-10 -137 -4 -189 -9 -225 -22 -57 -21 -134 -88 -165 -143 -21 -36 -21 -39 -4
-40 86 -7 159 -57 187 -129 37 -97 -9 -229 -100 -291 -27 -18 -44 -34 -40 -34
28 -4 -62 -17 -123 -18 -87 -1 -143 18 -177 62 l-24 30 -16 -30 c-55 -108 -6
-268 103 -330 25 -15 47 -27 49 -28 6 -4 -53 -155 -88 -226 -21 -41 -60 -103
-87 -137 l-48 -62 -80 6 c-117 8 -274 32 -354 53 -39 10 -69 15 -66 11 2 -3
-65 27 -150 69 -84 42 -151 80 -147 85 3 5 -2 7 -11 3 -10 -4 -16 -2 -14 5 3
15 -126 123 -190 160 l-53 30 0 58 0 58 64 41 c80 52 233 210 275 282 153 266
52 594 -224 726 -137 65 -314 80 -405 33 -21 -11 -40 -17 -43 -14 -13 14 -137
-66 -200 -127 -236 -234 -191 -607 97 -791 26 -17 56 -32 65 -33 9 -1 32 -10
51 -20 l35 -18 -75 -36 -74 -35 44 -20 c25 -11 74 -25 110 -32 36 -7 53 -13
38 -13 -22 -1 -28 -6 -28 -24 0 -13 6 -29 13 -36 10 -10 8 -11 -6 -5 -26 10
-108 -14 -146 -43 -39 -30 -70 -93 -71 -144 0 -22 11 -52 29 -80 l28 -46 -36
-43 c-47 -57 -48 -101 -3 -165 24 -34 32 -56 32 -88 0 -78 50 -129 141 -143
24 -4 38 -9 31 -12 -9 -3 -12 -129 -12 -581 l0 -577 -45 -32 c-25 -18 -58 -52
-73 -77 -17 -29 -34 -44 -47 -45 -58 -1 -114 -75 -130 -171 -7 -42 -6 -43 9
-24 14 17 14 15 -1 -17 -9 -21 -14 -40 -11 -43 3 -3 24 4 47 15 22 12 58 23
78 25 21 1 31 1 22 -2 -19 -5 -54 -66 -64 -111 -8 -39 3 -114 16 -106 5 3 9
-2 9 -11 0 -14 5 -12 31 7 68 51 84 58 129 56 44 -1 44 -1 8 -5 -32 -4 -38 -8
-38 -28 0 -46 22 -125 43 -157 22 -33 22 -36 19 -480 l-2 -448 -35 0 -35 0 0
-115 0 -115 61 0 c34 0 58 -4 54 -9 -3 -5 5 -12 17 -14 18 -3 16 -5 -8 -6 -31
-1 -70 -34 -93 -78 -20 -40 -16 -128 9 -167 25 -41 87 -81 140 -90 57 -10 132
18 173 63 74 82 69 180 -11 258 l-44 43 56 0 56 0 0 120 0 120 -35 0 -35 0 0
388 c0 296 -3 391 -12 402 -11 12 -10 12 4 1 10 -7 32 -14 50 -16 32 -3 33 -2
35 41 5 112 114 221 258 259 124 32 237 11 311 -57 l44 -41 63 23 c193 70 379
194 579 388 l97 94 24 -39 c13 -21 57 -95 98 -165 49 -84 81 -128 94 -131 13
-3 10 -5 -10 -6 -16 0 -70 -21 -120 -45 -176 -86 -373 -234 -531 -398 -177
-185 -265 -342 -267 -477 -1 -108 44 -179 154 -247 58 -36 59 -38 59 -82 0
-82 -31 -254 -60 -333 -46 -126 -99 -192 -185 -230 -43 -20 -63 -22 -140 -19
-167 8 -320 4 -375 -9 -185 -46 -268 -163 -233 -332 7 -33 7 -33 14 -9 6 20 7
17 8 -17 l1 -42 62 -3 c56 -3 60 -4 43 -18 -11 -9 -16 -10 -11 -2 5 9 -5 12
-42 12 -55 0 -62 -7 -62 -68 0 -72 34 -146 84 -183 20 -16 22 -16 23 1 9 118
98 190 235 190 48 0 48 0 48 -33 0 -82 71 -216 107 -203 8 3 12 2 9 -3 -3 -5
1 -11 9 -15 11 -4 15 2 15 23 0 50 31 120 71 160 62 62 189 96 189 51 0 -34
25 -84 60 -118 36 -36 98 -73 84 -50 -4 7 1 6 12 -4 18 -16 19 -15 20 26 3 92
49 135 184 172 108 28 139 43 183 88 45 45 69 99 106 241 17 66 43 144 57 174
61 125 203 218 414 272 l45 11 -75 20 c-41 11 -105 35 -142 55 -175 92 -213
206 -112 338 60 79 265 184 391 200 l48 7 37 -65 c52 -91 150 -218 206 -268
103 -92 228 -154 326 -161 49 -4 70 -30 92 -118 12 -48 15 -90 11 -160 -7
-125 -29 -194 -77 -242 l-38 -38 -98 0 c-175 -1 -312 -37 -392 -104 -75 -64
-110 -176 -79 -258 8 -24 20 -67 26 -96 13 -61 31 -100 64 -136 l24 -26 11 39
c14 45 54 88 99 107 43 19 171 36 205 28 25 -5 28 -10 28 -48 0 -51 39 -131
64 -131 9 0 21 -6 25 -14 6 -9 13 4 21 39 22 92 96 149 191 150 46 0 46 0 53
-40 4 -27 18 -51 42 -75 20 -20 39 -34 42 -31 3 3 11 1 19 -5 10 -9 13 -5 13
18 0 68 76 133 155 133 49 0 101 30 117 68 7 17 14 134 19 307 9 383 38 522
155 743 52 99 143 232 177 261 33 26 16 28 -64 4 -196 -56 -372 -11 -530 135
-105 97 -213 270 -238 382 l-9 38 65 -53 c156 -128 372 -197 618 -198 215 0
344 42 450 148 110 108 141 272 90 470 -24 96 -107 251 -195 365 -120 157
-162 219 -175 264 -13 45 -9 116 7 116 6 0 8 7 4 15 -3 8 -2 14 2 13 4 -1 27
11 51 27 39 26 54 30 110 30 80 -1 129 -24 187 -87 74 -80 94 -190 51 -277
-21 -41 -21 -47 -3 -32 8 7 24 14 37 16 63 12 187 128 235 220 119 227 27 462
-215 547 -188 65 -434 9 -588 -135 -35 -33 -63 -56 -63 -53 0 21 68 134 119
199 72 90 142 152 377 329 206 156 307 256 352 349 98 201 37 482 -133 611
-187 142 -499 120 -675 -48 -77 -73 -112 -144 -118 -240 -3 -42 0 -79 6 -90
10 -17 11 -17 12 6 1 34 36 109 55 116 8 3 13 10 10 14 -3 4 3 14 13 21 15 13
16 12 3 -3 -17 -23 -13 -22 40 2 79 36 182 18 236 -41 57 -62 69 -169 29 -254
-34 -72 -79 -119 -270 -284 -94 -81 -198 -177 -230 -212 -155 -167 -213 -329
-187 -522 23 -172 84 -286 261 -487 56 -63 117 -135 135 -160 81 -112 120
-235 113 -360 -5 -86 -24 -133 -75 -183 -60 -61 -94 -72 -218 -72 -172 1 -293
45 -401 147 -28 26 -54 45 -59 40 -5 -4 -5 -1 -1 6 4 6 2 12 -4 12 -6 0 -8 5
-5 10 3 6 2 10 -3 10 -17 0 -101 214 -126 321 -14 57 -41 203 -61 324 -47 294
-85 426 -146 504 -20 26 -24 80 -13 189 6 57 8 61 27 50 11 -5 47 -10 81 -10
176 1 334 141 336 298 0 56 -26 140 -62 197 l-30 47 -17 -32 c-39 -79 -141
-101 -239 -52 -104 52 -148 139 -146 294 2 218 110 312 288 250 61 -21 102
-46 152 -92 l30 -28 -9 72 c-5 40 -7 121 -4 181 2 59 1 107 -3 107 -4 0 -30
-4 -57 -9 -92 -18 -173 22 -173 85 0 53 75 155 128 175 13 5 50 9 82 9 74 0
104 -21 104 -74 0 -20 1 -36 2 -36 1 0 20 31 43 69 22 38 63 94 91 124 45 50
50 59 50 102 0 41 2 46 18 40 48 -21 56 -17 89 37 29 48 30 55 17 79 -15 30
-45 55 -119 102 -31 20 -64 54 -88 90 -27 40 -45 57 -60 57 -44 0 -315 60
-405 89 -253 83 -402 209 -402 341 0 43 -4 46 -35 28z m-77 -78 c-22 -30 -35
-41 -22 -17 9 16 36 47 41 47 2 0 -6 -13 -19 -30z m-2398 -113 c0 -2 -17 -19
-37 -38 l-38 -34 34 38 c33 34 41 42 41 34z m2327 -74 c-3 -10 -5 -4 -5 12 0
17 2 24 5 18 2 -7 2 -21 0 -30z m-2397 -7 c0 -2 -8 -10 -17 -17 -16 -13 -17
-12 -4 4 13 16 21 21 21 13z m-52 -81 c-12 -24 -23 -43 -26 -41 -4 5 36 86 43
86 3 0 -5 -20 -17 -45z m-51 -127 c-3 -8 -6 -5 -6 6 -1 11 2 17 5 13 3 -3 4
-12 1 -19z m568 2 c3 -6 -1 -7 -9 -4 -18 7 -21 14 -7 14 6 0 13 -4 16 -10z
m51 -42 l29 -33 -32 29 c-31 28 -38 36 -30 36 2 0 16 -15 33 -32z m-629 -10
c-3 -7 -5 -2 -5 12 0 14 2 19 5 13 2 -7 2 -19 0 -25z m337 10 c-5 -8 -2 -9 12
-4 45 17 77 18 120 1 55 -21 84 -63 84 -120 0 -100 -101 -164 -197 -123 -15 7
-35 12 -43 13 -8 0 -14 8 -14 18 1 9 -2 17 -6 17 -4 0 -10 18 -14 39 -6 41 15
119 37 133 7 4 13 12 13 18 2 17 4 20 10 20 3 0 2 -5 -2 -12z m1799 5 c-13 -2
-33 -2 -45 0 -13 2 -3 4 22 4 25 0 35 -2 23 -4z m-103 -17 c0 -2 -12 -11 -27
-20 l-28 -17 24 20 c23 21 31 25 31 17z m180 -21 c13 -14 21 -25 18 -25 -2 0
-15 11 -28 25 -13 14 -21 25 -18 25 2 0 15 -11 28 -25z m-2223 -142 c-2 -27
-3 -5 -3 47 0 52 1 74 3 48 2 -27 2 -69 0 -95z m2261 82 c-3 -3 -9 2 -12 12
-6 14 -5 15 5 6 7 -7 10 -15 7 -18z m-1571 -17 c-3 -8 -6 -5 -6 6 -1 11 2 17
5 13 3 -3 4 -12 1 -19z m2383 -66 c12 -36 22 -50 47 -62 19 -9 32 -21 30 -30
-10 -50 -237 55 -237 109 0 28 9 31 79 31 l66 0 15 -48z m167 40 c8 -5 3 -18
-17 -42 -24 -29 -32 -33 -47 -24 -10 6 -19 25 -21 43 -3 30 -2 31 35 31 21 0
43 -4 50 -8z m-960 -24 c-3 -8 -6 -5 -6 6 -1 11 2 17 5 13 3 -3 4 -12 1 -19z
m-1590 -20 c-3 -7 -5 -2 -5 12 0 14 2 19 5 13 2 -7 2 -19 0 -25z m-680 -90
c-3 -7 -5 -2 -5 12 0 14 2 19 5 13 2 -7 2 -19 0 -25z m349 -10 l29 -33 -32 29
c-31 28 -38 36 -30 36 2 0 16 -15 33 -32z m1921 0 c-3 -8 -6 -5 -6 6 -1 11 2
17 5 13 3 -3 4 -12 1 -19z m-2260 -30 c-3 -8 -6 -5 -6 6 -1 11 2 17 5 13 3 -3
4 -12 1 -19z m456 -25 c-7 -2 -19 -2 -25 0 -7 3 -2 5 12 5 14 0 19 -2 13 -5z
m1787 -1 c0 -5 -7 -17 -15 -28 -14 -18 -14 -17 -4 9 12 27 19 34 19 19z
m-1640 -6 c0 -2 -8 -10 -17 -17 -16 -13 -17 -12 -4 4 13 16 21 21 21 13z m-75
-86 c-21 -22 -42 -40 -47 -40 -7 0 73 79 82 80 2 0 -14 -18 -35 -40z m1685 37
c0 -2 -17 -19 -37 -38 l-38 -34 34 38 c33 34 41 42 41 34z m-513 -109 c-2 -13
-4 -5 -4 17 -1 22 1 32 4 23 2 -10 2 -28 0 -40z m433 37 c0 -6 -56 -35 -67
-35 -4 1 8 9 27 20 39 22 40 22 40 15z m-2039 -32 c13 -16 12 -17 -3 -4 -10 7
-18 15 -18 17 0 8 8 3 21 -13z m49 -58 c13 -14 21 -25 18 -25 -2 0 -15 11 -28
25 -13 14 -21 25 -18 25 2 0 15 -11 28 -25z m1635 -95 c21 -22 37 -40 34 -40
-3 0 -23 18 -44 40 -21 22 -37 40 -34 40 3 0 23 -18 44 -40z m-1375 -165 c0
-36 -3 -65 -7 -65 -5 0 -6 25 -4 56 2 40 -1 59 -10 65 -11 7 -10 9 4 9 14 0
17 -10 17 -65z m-192 -152 c-32 -5 -48 -23 -58 -66 -7 -29 -8 -30 -9 -6 -1 38
34 79 67 78 l27 -2 -27 -4z m3925 -10 c-7 -2 -19 -2 -25 0 -7 3 -2 5 12 5 14
0 19 -2 13 -5z m114 1 c-3 -3 -12 -4 -19 -1 -8 3 -5 6 6 6 11 1 17 -2 13 -5z
m-3947 -14 c8 -5 11 -10 5 -10 -5 0 -17 5 -25 10 -8 5 -10 10 -5 10 6 0 17 -5
25 -10z m3690 -34 c0 -2 -8 -10 -17 -17 -16 -13 -17 -12 -4 4 13 16 21 21 21
13z m396 -28 l29 -33 -32 29 c-31 28 -38 36 -30 36 2 0 16 -15 33 -32z m-2500
-97 c-26 -50 -48 -91 -51 -91 -3 0 16 43 42 95 26 52 49 93 51 91 2 -2 -17
-45 -42 -95z m-1715 62 c13 -16 12 -17 -3 -4 -10 7 -18 15 -18 17 0 8 8 3 21
-13z m52 -20 c-7 -2 -19 -2 -25 0 -7 3 -2 5 12 5 14 0 19 -2 13 -5z m180 -10
c-23 -2 -64 -2 -90 0 -26 2 -7 3 42 3 50 0 71 -1 48 -3z m-204 -76 c-2 -1 -13
-9 -24 -17 -19 -14 -19 -14 -6 3 7 9 18 17 24 17 6 0 8 -1 6 -3z m44 -4 c-7
-2 -19 -2 -25 0 -7 3 -2 5 12 5 14 0 19 -2 13 -5z m4214 -15 c-3 -8 -6 -5 -6
6 -1 11 2 17 5 13 3 -3 4 -12 1 -19z m-3241 -39 c3 -6 -5 -3 -20 6 -14 10 -26
19 -26 22 0 7 39 -17 46 -28z m-771 -9 c3 -6 -1 -7 -9 -4 -18 7 -21 14 -7 14
6 0 13 -4 16 -10z m-282 -20 c3 -11 1 -18 -4 -14 -5 3 -9 12 -9 20 0 20 7 17
13 -6z m1647 -10 c-6 -11 -13 -20 -16 -20 -2 0 0 9 6 20 6 11 13 20 16 20 2 0
0 -9 -6 -20z m-529 -7 c13 -16 12 -17 -3 -4 -10 7 -18 15 -18 17 0 8 8 3 21
-13z m-904 -9 c-3 -3 -12 -4 -19 -1 -8 3 -5 6 6 6 11 1 17 -2 13 -5z m-64 -11
c-7 -2 -21 -2 -30 0 -10 3 -4 5 12 5 17 0 24 -2 18 -5z m1012 -13 c10 -11 16
-20 13 -20 -3 0 -13 9 -23 20 -10 11 -16 20 -13 20 3 0 13 -9 23 -20z m445
-20 c-12 -16 -24 -30 -26 -30 -3 0 4 14 16 30 12 17 24 30 26 30 3 0 -4 -13
-16 -30z m-370 -45 c19 -19 32 -35 29 -35 -3 0 -20 16 -39 35 -19 19 -32 35
-29 35 3 0 20 -16 39 -35z m358 -20 c-3 -3 -9 2 -12 12 -6 14 -5 15 5 6 7 -7
10 -15 7 -18z m-1451 9 c-3 -3 -12 -4 -19 -1 -8 3 -5 6 6 6 11 1 17 -2 13 -5z
m4103 -23 c-5 -11 -15 -23 -21 -27 -6 -3 -3 5 6 20 20 30 30 35 15 7z m-2949
-38 c13 -16 12 -17 -3 -4 -10 7 -18 15 -18 17 0 8 8 3 21 -13z m316 -100 c-2
-21 -4 -6 -4 32 0 39 2 55 4 38 2 -18 2 -50 0 -70z m2603 94 c0 -1 -39 -41
-87 -87 l-88 -85 85 88 c79 81 90 92 90 84z m-4083 -13 c-3 -3 -12 -4 -19 -1
-8 3 -5 6 6 6 11 1 17 -2 13 -5z m58 -144 c10 -11 16 -20 13 -20 -3 0 -13 9
-23 20 -10 11 -16 20 -13 20 3 0 13 -9 23 -20z m3845 -13 c0 -2 -12 -14 -27
-28 l-28 -24 24 28 c23 25 31 32 31 24z m-3540 -32 c98 -21 272 -80 263 -90
-5 -4 3 -5 17 -1 14 3 20 3 13 0 -9 -4 -4 -18 15 -46 34 -53 37 -123 6 -164
-18 -24 -75 -62 -116 -77 -20 -7 51 -77 100 -99 94 -42 248 -31 365 28 65 33
131 86 153 124 15 25 20 27 38 18 27 -15 41 -32 73 -93 14 -27 31 -53 37 -57
7 -5 6 -8 -5 -8 -8 0 -105 -50 -215 -111 -195 -108 -354 -210 -544 -349 -109
-80 -223 -140 -280 -147 l-40 -6 0 547 0 546 24 0 c14 0 57 -7 96 -15z m897
-52 c-3 -10 -5 -2 -5 17 0 19 2 27 5 18 2 -10 2 -26 0 -35z m2583 34 c0 -2
-15 -16 -32 -33 l-33 -29 29 33 c28 30 36 37 36 29z m-3743 -789 c-1 -145 -2
-29 -2 257 0 286 1 404 2 263 2 -141 2 -375 0 -520z m1323 739 c0 -2 -10 -12
-22 -23 l-23 -19 19 23 c18 21 26 27 26 19z m2350 -10 c0 -2 -15 -16 -32 -33
l-33 -29 29 33 c28 30 36 37 36 29z m-3034 -69 l29 -33 -32 29 c-31 28 -38 36
-30 36 2 0 16 -15 33 -32z m527 -5 c-7 -2 -19 -2 -25 0 -7 3 -2 5 12 5 14 0
19 -2 13 -5z m2427 4 c0 -1 -26 -27 -57 -57 l-58 -55 55 58 c50 53 60 62 60
54z m-2913 -79 c-3 -8 -6 -5 -6 6 -1 11 2 17 5 13 3 -3 4 -12 1 -19z m3 -53
c0 -8 -14 -29 -31 -47 l-31 -33 26 33 c14 19 26 40 26 48 0 8 2 14 5 14 3 0 5
-7 5 -15z m2769 -25 c-18 -22 -34 -40 -37 -40 -5 0 12 24 42 58 33 37 29 25
-5 -18z m-49 -70 c-6 -11 -13 -20 -16 -20 -2 0 0 9 6 20 6 11 13 20 16 20 2 0
0 -9 -6 -20z m-2857 -7 c-13 -2 -35 -2 -50 0 -16 2 -5 4 22 4 28 0 40 -2 28
-4z m2818 -70 c-12 -20 -14 -14 -5 12 4 9 9 14 11 11 3 -2 0 -13 -6 -23z
m-2084 -19 c-3 -3 -12 -4 -19 -1 -8 3 -5 6 6 6 11 1 17 -2 13 -5z m50 -10 c-3
-3 -12 -4 -19 -1 -8 3 -5 6 6 6 11 1 17 -2 13 -5z m86 -11 c-7 -2 -19 -2 -25
0 -7 3 -2 5 12 5 14 0 19 -2 13 -5z m176 -6 c-2 -1 -13 -9 -23 -17 -11 -8 -17
-10 -13 -3 5 7 -1 13 -15 16 -14 3 -7 5 16 6 22 0 37 0 35 -2z m1748 -29 c-3
-8 -6 -5 -6 6 -1 11 2 17 5 13 3 -3 4 -12 1 -19z m-10 -65 c-3 -10 -5 -4 -5
12 0 17 2 24 5 18 2 -7 2 -21 0 -30z m-1967 -48 c0 -2 -10 -9 -22 -15 -22 -11
-22 -10 -4 4 21 17 26 19 26 11z m1967 -67 c-2 -13 -4 -5 -4 17 -1 22 1 32 4
23 2 -10 2 -28 0 -40z m-2017 37 c0 -2 -10 -9 -22 -15 -22 -11 -22 -10 -4 4
21 17 26 19 26 11z m2688 -62 c-10 -2 -28 -2 -40 0 -13 2 -5 4 17 4 22 1 32
-1 23 -4z m-2808 -8 c0 -2 -10 -9 -22 -15 -22 -11 -22 -10 -4 4 21 17 26 19
26 11z m2630 -39 c0 -2 -8 -10 -17 -17 -16 -13 -17 -12 -4 4 13 16 21 21 21
13z m-2770 -41 c0 -2 -10 -9 -22 -15 -22 -11 -22 -10 -4 4 21 17 26 19 26 11z
m2720 -9 c0 -2 -8 -10 -17 -17 -16 -13 -17 -12 -4 4 13 16 21 21 21 13z
m-2810 -41 c0 -2 -10 -9 -22 -15 -22 -11 -22 -10 -4 4 21 17 26 19 26 11z
m3268 -20 c-3 -3 -9 2 -12 12 -6 14 -5 15 5 6 7 -7 10 -15 7 -18z m-3378 -40
c0 -6 -237 -125 -247 -124 -6 0 234 126 245 128 1 1 2 -1 2 -4z m3407 -92 c-3
-10 -5 -4 -5 12 0 17 2 24 5 18 2 -7 2 -21 0 -30z m-776 -30 c13 -16 12 -17
-3 -4 -10 7 -18 15 -18 17 0 8 8 3 21 -13z m-3393 -20 c-10 -2 -26 -2 -35 0
-10 3 -2 5 17 5 19 0 27 -2 18 -5z m3427 -23 c10 -11 16 -20 13 -20 -3 0 -13
9 -23 20 -10 11 -16 20 -13 20 3 0 13 -9 23 -20z m-3045 -20 c-8 -5 -19 -10
-25 -10 -5 0 -3 5 5 10 8 5 20 10 25 10 6 0 3 -5 -5 -10z m-50 -20 c-8 -5 -19
-10 -25 -10 -5 0 -3 5 5 10 8 5 20 10 25 10 6 0 3 -5 -5 -10z m3145 -20 c10
-11 16 -20 13 -20 -3 0 -13 9 -23 20 -10 11 -16 20 -13 20 3 0 13 -9 23 -20z
m645 -13 c0 -2 -15 -16 -32 -33 l-33 -29 29 33 c28 30 36 37 36 29z m-3943
-13 c-3 -3 -12 -4 -19 -1 -8 3 -5 6 6 6 11 1 17 -2 13 -5z m-134 -11 c-23 -2
-64 -2 -90 0 -26 2 -7 3 42 3 50 0 71 -1 48 -3z m-180 -10 c-7 -2 -21 -2 -30
0 -10 3 -4 5 12 5 17 0 24 -2 18 -5z m2114 1 c-3 -3 -12 -4 -19 -1 -8 3 -5 6
6 6 11 1 17 -2 13 -5z m-2180 -10 c-3 -3 -12 -4 -19 -1 -8 3 -5 6 6 6 11 1 17
-2 13 -5z m3738 -14 c10 -11 16 -20 13 -20 -3 0 -13 9 -23 20 -10 11 -16 20
-13 20 3 0 13 -9 23 -20z m-3841 -35 c-18 -19 -35 -35 -39 -35 -3 0 9 16 26
35 18 19 35 35 39 35 4 0 -7 -16 -26 -35z m2446 -20 c13 -14 21 -25 18 -25 -2
0 -15 11 -28 25 -13 14 -21 25 -18 25 2 0 15 -11 28 -25z m1441 -2 c13 -16 12
-17 -3 -4 -10 7 -18 15 -18 17 0 8 8 3 21 -13z m-3942 -16 c-2 -2 -17 -11 -34
-21 l-30 -17 24 20 c13 12 28 21 34 21 6 0 8 -1 6 -3z m3982 -34 c13 -16 12
-17 -3 -4 -10 7 -18 15 -18 17 0 8 8 3 21 -13z m-4081 -47 c0 -2 -8 -10 -17
-17 -16 -13 -17 -12 -4 4 13 16 21 21 21 13z m157 -82 c-3 -3 -12 -4 -19 -1
-8 3 -5 6 6 6 11 1 17 -2 13 -5z m2283 -7 c0 -2 -15 -16 -32 -33 l-33 -29 29
33 c28 30 36 37 36 29z m-2270 -10 c0 -2 -10 -12 -22 -23 l-23 -19 19 23 c18
21 26 27 26 19z m-40 -51 c0 -2 -8 -10 -17 -17 -16 -13 -17 -12 -4 4 13 16 21
21 21 13z m-52 -81 c-12 -24 -23 -43 -26 -41 -4 5 36 86 43 86 3 0 -5 -20 -17
-45z m2179 39 c-3 -3 -12 -4 -19 -1 -8 3 -5 6 6 6 11 1 17 -2 13 -5z m323 -59
c-24 -25 -46 -45 -49 -45 -3 0 15 20 39 45 24 25 46 45 49 45 3 0 -15 -20 -39
-45z m-2284 -6 c3 -6 1 -16 -6 -22 -10 -9 -11 -9 -5 2 4 8 2 17 -6 22 -9 6
-10 9 -2 9 6 0 15 -5 19 -11z m3931 -21 c-3 -8 -6 -5 -6 6 -1 11 2 17 5 13 3
-3 4 -12 1 -19z m10 -130 c-2 -18 -4 -6 -4 27 0 33 2 48 4 33 2 -15 2 -42 0
-60z m-3874 -999 c-5 -5 -6 231 -3 524 l5 532 3 -524 c1 -289 -1 -528 -5 -532z
m74 1045 c-3 -3 -12 -4 -19 -1 -8 3 -5 6 6 6 11 1 17 -2 13 -5z m-190 -46 c-3
-7 -5 -2 -5 12 0 14 2 19 5 13 2 -7 2 -19 0 -25z m63 29 c0 -2 -10 -12 -22
-23 l-23 -19 19 23 c18 21 26 27 26 19z m207 -49 c-3 -8 -6 -5 -6 6 -1 11 2
17 5 13 3 -3 4 -12 1 -19z m1793 2 c-8 -5 -19 -10 -25 -10 -5 0 -3 5 5 10 8 5
20 10 25 10 6 0 3 -5 -5 -10z m-1793 -42 c-3 -8 -6 -5 -6 6 -1 11 2 17 5 13 3
-3 4 -12 1 -19z m22 -48 c11 -24 11 -24 -3 -6 -9 11 -16 24 -16 30 0 12 5 7
19 -24z m-68 -17 c13 -16 12 -17 -3 -4 -10 7 -18 15 -18 17 0 8 8 3 21 -13z
m2939 -28 c19 -19 32 -35 29 -35 -3 0 -20 16 -39 35 -19 19 -32 35 -29 35 3 0
20 -16 39 -35z m780 -9 c0 -2 -8 -10 -17 -17 -16 -13 -17 -12 -4 4 13 16 21
21 21 13z m-35 -46 c-3 -5 -20 -19 -38 -30 -32 -22 -32 -22 3 9 37 32 45 37
35 21z m-2286 -4 c-10 -9 -129 -66 -129 -61 0 6 111 64 124 65 5 0 7 -2 5 -4z
m1838 -92 c-3 -3 -12 -4 -19 -1 -8 3 -5 6 6 6 11 1 17 -2 13 -5z m-2032 -12
c-29 -24 -85 -62 -85 -58 0 7 80 66 89 66 3 0 1 -4 -4 -8z m2138 1 c-13 -2
-35 -2 -50 0 -16 2 -5 4 22 4 28 0 40 -2 28 -4z m105 0 c-10 -2 -28 -2 -40 0
-13 2 -5 4 17 4 22 1 32 -1 23 -4z m-2378 -108 c-24 -25 -46 -45 -49 -45 -3 0
15 20 39 45 24 25 46 45 49 45 3 0 -15 -20 -39 -45z m-77 -100 c-3 -9 -8 -14
-10 -11 -3 3 -2 9 2 15 9 16 15 13 8 -4z m-36 -117 c-3 -7 -5 -2 -5 12 0 14 2
19 5 13 2 -7 2 -19 0 -25z m0 -85 c-3 -10 -5 -4 -5 12 0 17 2 24 5 18 2 -7 2
-21 0 -30z m1256 30 c-24 -2 -62 -2 -85 0 -24 2 -5 4 42 4 47 0 66 -2 43 -4z
m114 -28 c1 -15 0 -15 -3 -3 -3 9 -13 19 -22 22 -12 3 -12 4 3 3 12 -1 21 -10
22 -22z m-1282 -165 c10 -11 16 -20 13 -20 -3 0 -13 9 -23 20 -10 11 -16 20
-13 20 3 0 13 -9 23 -20z m1365 -5 c13 -14 21 -25 18 -25 -2 0 -15 11 -28 25
-13 14 -21 25 -18 25 2 0 15 -11 28 -25z m-1243 -142 c-2 -16 -4 -5 -4 22 0
28 2 40 4 28 2 -13 2 -35 0 -50z m1450 41 c-3 -3 -12 -4 -19 -1 -8 3 -5 6 6 6
11 1 17 -2 13 -5z m66 -11 c-7 -2 -19 -2 -25 0 -7 3 -2 5 12 5 14 0 19 -2 13
-5z m138 -20 c13 -16 12 -17 -3 -4 -10 7 -18 15 -18 17 0 8 8 3 21 -13z
m-3004 -9 c-3 -3 -12 -4 -19 -1 -8 3 -5 6 6 6 11 1 17 -2 13 -5z m-44 -11 c-7
-2 -19 -2 -25 0 -7 3 -2 5 12 5 14 0 19 -2 13 -5z m3078 -20 c13 -16 12 -17
-3 -4 -10 7 -18 15 -18 17 0 8 8 3 21 -13z m-1694 -65 c-3 -8 -6 -5 -6 6 -1
11 2 17 5 13 3 -3 4 -12 1 -19z m-1242 -108 c10 -11 16 -20 13 -20 -3 0 -13 9
-23 20 -10 11 -16 20 -13 20 3 0 13 -9 23 -20z m3002 -22 c-3 -7 -5 -2 -5 12
0 14 2 19 5 13 2 -7 2 -19 0 -25z m-2970 -75 c-3 -10 -5 -4 -5 12 0 17 2 24 5
18 2 -7 2 -21 0 -30z m2970 -35 c-3 -7 -5 -2 -5 12 0 14 2 19 5 13 2 -7 2 -19
0 -25z m-2987 -21 c0 -2 -10 -12 -22 -23 l-23 -19 19 23 c18 21 26 27 26 19z
m-141 -44 c2 -2 0 -3 -6 -3 -6 0 -21 9 -34 21 l-24 20 30 -17 c17 -10 32 -19
34 -21z m1261 7 c-6 -11 -13 -20 -16 -20 -2 0 0 9 6 20 6 11 13 20 16 20 2 0
0 -9 -6 -20z m1857 -2 c-3 -8 -6 -5 -6 6 -1 11 2 17 5 13 3 -3 4 -12 1 -19z
m-3059 -15 c-10 -2 -26 -2 -35 0 -10 3 -2 5 17 5 19 0 27 -2 18 -5z m1162 -46
c0 -2 -12 -14 -27 -28 l-28 -24 24 28 c23 25 31 32 31 24z m-50 -60 c0 -2 -10
-12 -22 -23 l-23 -19 19 23 c18 21 26 27 26 19z m1891 -44 c-12 -20 -14 -14
-5 12 4 9 9 14 11 11 3 -2 0 -13 -6 -23z m-1951 -6 c0 -2 -10 -12 -22 -23
l-23 -19 19 23 c18 21 26 27 26 19z m-94 -72 c-11 -8 -25 -15 -30 -15 -6 1 0
7 14 15 32 19 40 18 16 0z m1994 -25 c-6 -11 -13 -20 -16 -20 -2 0 0 9 6 20 6
11 13 20 16 20 2 0 0 -9 -6 -20z m-2093 -16 c-3 -3 -12 -4 -19 -1 -8 3 -5 6 6
6 11 1 17 -2 13 -5z m-419 -11 c-10 -2 -28 -2 -40 0 -13 2 -5 4 17 4 22 1 32
-1 23 -4z m325 0 c-35 -2 -91 -2 -125 0 -35 2 -7 3 62 3 69 0 97 -1 63 -3z
m-406 -9 c-3 -3 -12 -4 -19 -1 -8 3 -5 6 6 6 11 1 17 -2 13 -5z m-57 -14 c-8
-5 -19 -10 -25 -10 -5 0 -3 5 5 10 8 5 20 10 25 10 6 0 3 -5 -5 -10z m2601
-28 c-20 -38 -36 -43 -132 -39 l-94 3 97 2 c92 2 98 3 114 27 19 29 29 34 15
7z m-2713 -69 c-27 -47 -28 -49 -28 -37 0 11 38 74 45 74 2 0 -5 -17 -17 -37z
m2430 20 c-10 -2 -26 -2 -35 0 -10 3 -2 5 17 5 19 0 27 -2 18 -5z m-85 -10
c-7 -2 -19 -2 -25 0 -7 3 -2 5 12 5 14 0 19 -2 13 -5z m-198 -61 c-6 -4 -26
-21 -45 -37 l-36 -30 38 38 c20 20 41 37 45 37 4 0 3 -3 -2 -8z m-2178 -34
c-3 -8 -6 -5 -6 6 -1 11 2 17 5 13 3 -3 4 -12 1 -19z m2070 -110 c-3 -8 -6 -5
-6 6 -1 11 2 17 5 13 3 -3 4 -12 1 -19z m-10 -50 c-3 -7 -5 -2 -5 12 0 14 2
19 5 13 2 -7 2 -19 0 -25z m-1200 -50 c-3 -8 -6 -5 -6 6 -1 11 2 17 5 13 3 -3
4 -12 1 -19z m-800 -65 c-2 -16 -4 -3 -4 27 0 30 2 43 4 28 2 -16 2 -40 0 -55z
m400 -45 c-2 -13 -4 -3 -4 22 0 25 2 35 4 23 2 -13 2 -33 0 -45z m1660 30 c-3
-7 -5 -2 -5 12 0 14 2 19 5 13 2 -7 2 -19 0 -25z m-1223 -24 c3 -8 2 -12 -4
-9 -6 3 -10 10 -10 16 0 14 7 11 14 -7z m-827 -16 c-3 -8 -6 -5 -6 6 -1 11 2
17 5 13 3 -3 4 -12 1 -19z m2050 -40 c-3 -7 -5 -2 -5 12 0 14 2 19 5 13 2 -7
2 -19 0 -25z"/>
<path d="M7858 8138 c-61 -60 -129 -82 -233 -76 -54 4 -85 12 -120 32 -27 14
-51 23 -55 19 -3 -5 -18 -25 -33 -45 l-27 -37 31 -36 c51 -58 111 -87 188 -93
117 -8 211 39 266 133 25 41 49 143 36 148 -3 1 -27 -19 -53 -45z"/>
<path d="M1073 7729 c-58 -18 -84 -39 -49 -39 8 0 36 -9 61 -20 l48 -20 47 30
c27 17 76 37 111 44 51 10 58 14 39 19 -52 14 -194 6 -257 -14z"/>
<path d="M1274 7672 c-28 -9 -62 -24 -74 -33 -23 -15 -23 -15 29 -49 l53 -33
51 18 c58 22 167 25 232 7 l40 -11 -56 53 c-34 32 -70 56 -89 60 -55 10 -132
6 -186 -12z"/>
<path d="M885 7611 c-27 -28 -50 -55 -50 -60 0 -6 50 -34 110 -64 99 -49 327
-180 398 -230 16 -10 29 -18 30 -16 28 47 69 151 61 158 -5 5 -77 54 -161 109
-148 98 -225 136 -301 148 -34 5 -40 2 -87 -45z"/>
<path d="M1363 7539 c-18 -5 -33 -11 -33 -14 0 -2 34 -25 75 -51 67 -43 81
-47 128 -46 28 2 75 -1 104 -6 l52 -9 -15 36 c-9 20 -18 41 -20 47 -15 34
-221 65 -291 43z"/>
<path d="M790 7479 c-6 -11 -17 -37 -25 -58 -17 -49 -8 -64 80 -126 78 -56
182 -105 317 -149 162 -53 153 -53 173 0 15 39 15 48 4 59 -46 44 -497 294
-531 295 -4 0 -12 -9 -18 -21z"/>
<path d="M1441 7278 c-26 -57 -74 -170 -106 -251 l-59 -148 31 -31 31 -31 51
69 c94 126 159 287 176 437 l6 57 -41 0 -41 0 -48 -102z"/>
<path d="M1607 7306 c-12 -139 -81 -311 -178 -442 l-41 -56 63 33 c160 84 259
252 259 438 0 67 -12 87 -61 95 l-36 6 -6 -74z"/>
<path d="M743 7243 c4 -70 9 -88 36 -126 35 -52 110 -104 201 -141 66 -27 249
-80 255 -74 2 2 17 37 33 78 l30 75 -127 41 c-188 61 -325 130 -405 203 l-29
26 6 -82z"/>
<path d="M818 7004 c6 -11 22 -32 36 -49 l26 -30 -11 30 c-5 17 -21 38 -35 49
-25 18 -26 18 -16 0z"/>
<path d="M920 6945 c0 -3 9 -24 20 -45 15 -29 34 -47 70 -65 27 -14 52 -25 55
-25 3 0 -6 18 -20 40 -14 22 -25 44 -25 49 0 6 -21 19 -46 31 -50 22 -54 23
-54 15z"/>
<path d="M1080 6881 c0 -6 16 -28 35 -50 39 -43 82 -57 147 -46 l40 7 -27 28
c-18 18 -48 34 -88 44 -34 9 -72 19 -84 22 -14 4 -23 2 -23 -5z"/>
<path d="M10675 7741 c-14 -6 -7 -9 30 -14 27 -4 77 -23 111 -42 l63 -34 43
19 c24 11 51 20 61 20 36 0 14 18 -48 39 -67 22 -217 29 -260 12z"/>
<path d="M10538 7681 c-31 -10 -114 -75 -121 -95 -5 -11 1 -12 31 -4 60 17
171 14 227 -6 l51 -18 52 32 c29 17 52 34 52 36 0 3 -26 17 -57 31 -62 29
-183 41 -235 24z"/>
<path d="M10975 7641 c-27 -10 -66 -26 -85 -36 -34 -17 -296 -189 -314 -206
-8 -7 51 -159 62 -159 2 0 16 8 30 18 109 76 463 272 490 272 30 0 19 27 -29
76 -60 60 -75 64 -154 35z"/>
<path d="M10485 7545 c-5 -2 -36 -11 -69 -21 -54 -16 -60 -21 -77 -62 -10 -24
-19 -45 -19 -47 0 -1 21 2 48 7 26 5 72 8 103 7 52 -2 63 2 135 46 l78 49 -35
12 c-31 11 -139 17 -164 9z"/>
<path d="M11058 7433 c-73 -37 -195 -106 -269 -152 l-137 -84 20 -48 c24 -57
13 -56 178 -2 195 63 382 172 396 230 7 28 -23 114 -42 120 -7 2 -72 -27 -146
-64z"/>
<path d="M10350 7373 c-38 -7 -50 -30 -50 -103 0 -80 21 -166 58 -234 38 -72
127 -158 200 -195 l62 -31 -46 62 c-56 76 -128 222 -149 303 -9 33 -19 93 -22
133 -4 44 -10 71 -17 71 -6 -1 -22 -4 -36 -6z"/>
<path d="M10444 7318 c4 -35 14 -90 22 -123 20 -81 103 -247 160 -319 l46 -58
31 30 30 30 -63 159 c-35 87 -83 200 -106 251 l-43 92 -42 0 -42 0 7 -62z"/>
<path d="M11210 7273 c-77 -61 -208 -124 -363 -174 -72 -24 -133 -44 -135 -45
-2 -1 57 -146 64 -153 4 -5 180 46 244 71 122 48 220 132 240 208 6 22 10 62
8 89 l-3 48 -55 -44z"/>
<path d="M11169 6997 c-15 -12 -29 -33 -33 -47 -5 -24 -5 -24 19 5 25 30 48
65 43 65 -2 0 -15 -10 -29 -23z"/>
<path d="M11037 6932 c-28 -13 -46 -31 -67 -70 -15 -28 -26 -52 -24 -52 3 0
26 11 52 24 46 24 64 44 82 92 11 28 8 28 -43 6z"/>
<path d="M10832 6866 c-44 -13 -82 -31 -98 -47 l-26 -27 40 -7 c66 -11 108 3
147 48 56 65 51 67 -63 33z"/>
<path d="M1061 5234 c-31 -39 -23 -85 32 -187 51 -96 66 -111 99 -98 19 7 29
23 42 70 25 88 38 81 51 -25 6 -44 10 -52 35 -61 28 -11 31 -9 87 59 72 86 92
123 93 169 0 68 -43 84 -271 95 l-146 7 -22 -29z"/>
<path d="M840 5100 c-16 -17 -34 -47 -40 -68 -7 -20 -30 -77 -52 -126 -23 -49
-43 -108 -46 -131 -4 -37 -1 -44 23 -63 34 -27 116 -28 220 -4 58 14 71 21 73
39 3 17 -10 32 -57 65 -33 24 -61 46 -61 51 0 10 30 9 91 -4 49 -11 53 -10 76
14 31 30 28 42 -36 140 -78 119 -136 146 -191 87z"/>
<path d="M1556 5039 c-26 -17 -71 -60 -101 -96 -54 -63 -55 -64 -40 -93 14
-28 19 -29 87 -32 39 -2 73 -8 75 -14 2 -5 -26 -23 -62 -39 -54 -23 -65 -32
-65 -52 0 -20 11 -29 63 -53 35 -16 91 -34 126 -41 53 -11 66 -11 89 2 44 24
48 64 19 181 -14 57 -28 121 -32 143 -4 21 -15 56 -25 76 -31 59 -64 64 -134
18z"/>
<path d="M1184 4850 c-41 -16 -74 -68 -74 -116 0 -37 6 -51 34 -82 31 -33 39
-37 84 -37 62 0 101 26 121 80 37 97 -67 195 -165 155z"/>
<path d="M970 4645 c-150 -32 -210 -69 -210 -130 0 -39 2 -41 164 -185 83 -73
117 -92 159 -88 42 4 71 57 86 155 17 114 15 130 -15 137 -20 5 -39 -3 -88
-38 -35 -25 -66 -42 -70 -39 -3 4 10 35 30 71 32 58 34 68 23 94 -6 15 -14 30
-18 32 -3 1 -31 -2 -61 -9z"/>
<path d="M1395 4594 c-17 -27 -17 -30 4 -97 13 -38 20 -71 17 -75 -4 -3 -32
20 -64 51 -90 89 -112 70 -112 -101 0 -166 59 -196 204 -104 33 22 87 54 118
71 66 37 108 82 108 116 0 34 -55 84 -135 121 -104 49 -118 51 -140 18z"/>
<path d="M10739 5250 c-107 -8 -146 -23 -168 -61 -13 -23 -12 -30 11 -80 13
-30 50 -84 81 -121 55 -64 58 -66 86 -55 27 10 30 16 38 76 4 35 13 66 19 68
6 2 19 -24 29 -58 15 -47 24 -63 44 -71 22 -8 29 -5 49 19 32 39 90 161 97
203 5 27 1 42 -15 63 -20 25 -26 27 -98 26 -42 -1 -120 -5 -173 -9z"/>
<path d="M11094 5086 c-23 -24 -60 -75 -82 -113 l-41 -68 28 -28 c28 -28 28
-29 89 -17 33 7 66 10 73 8 7 -2 -15 -25 -49 -52 -79 -60 -81 -79 -9 -101 28
-9 89 -19 134 -22 78 -5 82 -5 107 20 35 35 33 68 -7 152 -19 39 -40 88 -47
110 -52 160 -114 196 -196 111z"/>
<path d="M10403 5056 c-23 -17 -47 -83 -58 -156 -4 -25 -15 -74 -26 -109 -26
-87 -25 -126 6 -156 30 -31 62 -32 151 -4 103 32 144 55 144 82 0 18 -13 28
-65 51 -36 16 -64 34 -62 40 2 6 33 12 73 14 65 3 71 5 87 31 16 28 16 28 -38
92 -87 106 -165 148 -212 115z"/>
<path d="M10770 4838 c-49 -33 -69 -91 -49 -144 18 -46 69 -84 114 -84 38 0
94 35 113 70 7 14 11 44 9 69 -10 92 -111 140 -187 89z"/>
<path d="M11023 4625 c-15 -32 -15 -35 20 -98 20 -35 34 -67 30 -70 -3 -4 -34
14 -69 38 -51 37 -68 44 -90 39 l-27 -7 6 -76 c7 -88 28 -165 53 -192 19 -22
68 -25 101 -6 11 7 45 35 75 62 30 28 75 66 100 85 151 115 105 200 -135 248
-48 10 -48 10 -64 -23z"/>
<path d="M10533 4575 c-96 -47 -133 -83 -133 -128 0 -31 59 -86 131 -123 29
-14 75 -41 102 -60 129 -89 195 -55 196 102 2 173 -21 196 -111 107 -32 -31
-60 -54 -63 -51 -4 3 3 38 15 77 20 69 20 72 3 96 -10 13 -25 24 -33 25 -8 0
-56 -20 -107 -45z"/>
<path d="M9414 2576 c-18 -14 -18 -16 12 -47 33 -32 46 -32 64 1 8 15 6 24
-10 40 -24 24 -39 25 -66 6z"/>
<path d="M9587 2402 c-16 -17 -14 -21 23 -57 39 -38 40 -38 60 -20 11 10 20
28 20 40 0 48 -70 73 -103 37z"/>
<path d="M3015 2126 c-42 -18 -123 -110 -151 -171 -39 -83 -30 -142 25 -165
111 -45 305 236 221 320 -11 11 -24 20 -29 20 -5 0 -15 2 -23 5 -7 2 -27 -2
-43 -9z"/>
<path d="M3654 1721 c-54 -33 -134 -182 -134 -251 0 -59 37 -100 91 -100 32 0
104 75 137 143 51 103 54 166 10 207 -27 25 -64 26 -104 1z"/>
<path d="M4915 1267 c-4 -18 -9 -40 -11 -49 -4 -14 1 -18 26 -18 23 0 33 6 42
26 14 30 3 53 -29 65 -19 7 -23 3 -28 -24z"/>
<path d="M4861 1016 c-16 -66 -14 -74 19 -81 41 -9 60 9 60 55 0 39 -10 53
-46 64 -19 6 -23 1 -33 -38z"/>
</g>
</svg>
